<?xml version="1.0"?>
<svg xmlns="http://www.w3.org/2000/svg" xmlns:xlink="http://www.w3.org/1999/xlink" xmlns:svgjs="http://svgjs.com/svgjs" version="1.1" width="512" height="512" x="0" y="0" viewBox="0 0 512 512" style="enable-background:new 0 0 512 512" xml:space="preserve" class=""><g><path xmlns="http://www.w3.org/2000/svg" d="m104.878 271.026h-104.878c2.978 51.874 21.336 100.837 52.894 141.59 20.109-10.541 43.046-19.357 67.935-26.256-9.402-35.474-14.87-74.631-15.951-115.334z" fill="#ffffff" data-original="#000000" style="" class=""/><path xmlns="http://www.w3.org/2000/svg" d="m104.878 240.974c1.081-40.703 6.549-79.86 15.95-115.335-24.889-6.898-47.826-15.715-67.935-26.256-31.557 40.754-49.915 89.717-52.893 141.591z" fill="#ffffff" data-original="#000000" style="" class=""/><path xmlns="http://www.w3.org/2000/svg" d="m361.979 132.665c-28.756 5.922-59.451 9.451-90.953 10.303v98.005h106.031c-1.071-38.402-6.233-75.187-15.078-108.308z" fill="#ffffff" data-original="#000000" style="" class=""/><path xmlns="http://www.w3.org/2000/svg" d="m299.374 17.352c-9.239-7.783-18.727-13.02-28.347-15.699v111.253c28.443-.806 56.095-3.886 81.994-9.028-4.187-11.684-8.88-22.759-14.07-33.096-11.599-23.101-24.914-41.078-39.577-53.43z" fill="#ffffff" data-original="#000000" style="" class=""/><path xmlns="http://www.w3.org/2000/svg" d="m129.58 415.063c-20.436 5.623-39.376 12.63-56.264 20.891.452.459.892.925 1.348 1.381 28.721 28.72 63.055 49.788 100.527 62.182-10.525-12.428-20.263-27.415-28.999-44.815-6.196-12.339-11.738-25.613-16.612-39.639z" fill="#ffffff" data-original="#000000" style="" class=""/><path xmlns="http://www.w3.org/2000/svg" d="m382.42 96.936c20.436-5.623 39.376-12.63 56.264-20.891-.452-.459-.892-.925-1.348-1.381-28.721-28.72-63.055-49.788-100.527-62.182 10.525 12.428 20.263 27.415 28.999 44.815 6.196 12.34 11.738 25.614 16.612 39.639z" fill="#ffffff" data-original="#000000" style="" class=""/><path xmlns="http://www.w3.org/2000/svg" d="m407.122 271.026c-1.081 40.703-6.549 79.86-15.95 115.335 24.889 6.899 47.826 15.715 67.935 26.256 31.557-40.754 49.916-89.717 52.894-141.59h-104.879z" fill="#ffffff" data-original="#000000" style="" class=""/><path xmlns="http://www.w3.org/2000/svg" d="m173.049 70.781c-5.19 10.337-9.883 21.412-14.07 33.096 25.899 5.142 53.551 8.222 81.994 9.028v-111.252c-9.62 2.679-19.108 7.917-28.347 15.699-14.663 12.352-27.978 30.329-39.577 53.429z" fill="#ffffff" data-original="#000000" style="" class=""/><path xmlns="http://www.w3.org/2000/svg" d="m129.58 96.936c4.874-14.026 10.416-27.299 16.612-39.64 8.736-17.4 18.474-32.386 28.999-44.815-37.472 12.394-71.806 33.462-100.527 62.182-.456.456-.896.923-1.348 1.381 16.888 8.263 35.827 15.269 56.264 20.892z" fill="#ffffff" data-original="#000000" style="" class=""/><path xmlns="http://www.w3.org/2000/svg" d="m391.172 125.639c9.401 35.475 14.869 74.632 15.95 115.335h104.878c-2.978-51.873-21.336-100.837-52.893-141.59-20.109 10.54-43.047 19.357-67.935 26.255z" fill="#ffffff" data-original="#000000" style="" class=""/><path xmlns="http://www.w3.org/2000/svg" d="m382.42 415.063c-4.874 14.026-10.416 27.3-16.612 39.64-8.736 17.4-18.474 32.386-28.999 44.815 37.472-12.394 71.806-33.462 100.527-62.182.456-.456.896-.923 1.348-1.381-16.888-8.262-35.828-15.268-56.264-20.892z" fill="#ffffff" data-original="#000000" style="" class=""/><path xmlns="http://www.w3.org/2000/svg" d="m271.026 271.026v98.005c31.502.852 62.197 4.381 90.953 10.303 8.845-33.121 14.007-69.906 15.078-108.309h-106.031z" fill="#ffffff" data-original="#000000" style="" class=""/><path xmlns="http://www.w3.org/2000/svg" d="m240.974 271.026h-106.031c1.071 38.402 6.233 75.188 15.078 108.309 28.756-5.922 59.451-9.451 90.953-10.303z" fill="#ffffff" data-original="#000000" style="" class=""/><path xmlns="http://www.w3.org/2000/svg" d="m338.951 441.219c5.19-10.337 9.883-21.412 14.07-33.096-25.899-5.142-53.551-8.222-81.994-9.028v111.253c9.62-2.679 19.108-7.917 28.347-15.699 14.663-12.353 27.978-30.33 39.577-53.43z" fill="#ffffff" data-original="#000000" style="" class=""/><path xmlns="http://www.w3.org/2000/svg" d="m212.626 494.648c9.239 7.783 18.727 13.02 28.347 15.699v-111.252c-28.443.806-56.095 3.886-81.994 9.028 4.187 11.685 8.88 22.76 14.07 33.096 11.599 23.1 24.914 41.077 39.577 53.429z" fill="#ffffff" data-original="#000000" style="" class=""/><path xmlns="http://www.w3.org/2000/svg" d="m240.974 240.974v-98.005c-31.502-.852-62.197-4.381-90.953-10.303-8.845 33.121-14.007 69.906-15.078 108.309h106.031z" fill="#ffffff" data-original="#000000" style="" class=""/></g></svg>
